<?xml version="1.0" encoding="utf-8"?>
<!-- Generator: Adobe Illustrator 25.2.3, SVG Export Plug-In . SVG Version: 6.00 Build 0)  -->
<svg version="1.1" id="Ebene_1" xmlns="http://www.w3.org/2000/svg" xmlns:xlink="http://www.w3.org/1999/xlink" x="0px" y="0px"
	 viewBox="0 0 315.7 291.8" style="enable-background:new 0 0 315.7 291.8;" xml:space="preserve">
<style type="text/css">
	.st0{fill:#FFFFFF;}
</style>
<g>
	<g>
		<path class="st0" d="M303.5,81.6h-9.2c-0.1-7.4-6.1-13.3-13.4-13.3h-20.4v-9.9c0-7.5-6.1-13.6-13.6-13.6h-22.2V23.6
			c4.5-1.8,7.8-6.2,7.8-11.3C232.4,5.5,227,0,220.2,0C213.5,0,208,5.5,208,12.2c0,5.2,3.2,9.5,7.8,11.3v21.2h-20.4
			c-7.5,0-13.6,6.1-13.6,13.6v81c-7.3,1.4-15.4,2.3-23.9,2.3c-8,0-16-0.8-23.9-2.4V58.4c0-7.5-6.1-13.6-13.6-13.6H68.9
			c-7.5,0-13.6,6.1-13.6,13.6v9.9H34.9c-7.4,0-13.4,6-13.4,13.3h-9.2C5.5,81.6,0,87.1,0,93.8V159c0,6.8,5.5,12.3,12.2,12.3h9.2
			c0.1,7.4,6.1,13.3,13.4,13.3h20.4v9.9c0,7.5,6.1,13.6,13.6,13.6h51.5c7.5,0,13.6-6.1,13.6-13.6v-3c0.3,0,0.6,0.1,1,0.1l3.5,0.7
			c11.9,1.3,25.1,1.5,38.8,0l3.5-0.7v0c0.3,0,0.6-0.1,1-0.1v3c0,7.5,6.1,13.6,13.6,13.6h51.5c7.5,0,13.6-6.1,13.6-13.6v-9.9h20.4
			c7.4,0,13.4-6,13.4-13.3h9.2c6.8,0,12.2-5.5,12.2-12.3V93.8C315.7,87.1,310.2,81.6,303.5,81.6z M220.2,7.9c2.4,0,4.3,1.9,4.3,4.3
			c0,2.4-1.9,4.3-4.3,4.3s-4.3-1.9-4.3-4.3C215.9,9.9,217.9,7.9,220.2,7.9z M7.9,159V93.8c0-2.4,1.9-4.3,4.3-4.3h9.2v73.7h-9.2
			C9.9,163.3,7.9,161.3,7.9,159z M34.9,176.6c-3,0-5.5-2.5-5.5-5.5V81.7c0-3,2.5-5.5,5.5-5.5h20.4v100.4H34.9z M227.8,130.8l0.4,0.7
			c-5.9,7.1-30.2,33.4-70.3,33.7c-0.2,0-0.5,0-0.7,0c-38.3,0-63.7-26.7-70.3-34.5l0.7-0.8c25.2,14.6,49.3,19.6,70.3,19.6
			C194.1,149.6,220.9,135,227.8,130.8z M252.6,194.4c0,3.1-2.6,5.7-5.7,5.7h-51.5c-3.1,0-5.7-2.5-5.7-5.7v-12.3l-4.6,0.8
			c-2.3,0.4-4.5,0.6-6.7,0.9l-4.9,0.9c-5.1,0.5-10.1,0.7-15,0.7h-1.1c-4.8,0-9.6-0.2-14.5-0.7l-5.5-0.9c-2.2-0.3-4.4-0.5-6.7-0.9
			l-4.6-0.8v12.3c0,3.1-2.6,5.7-5.7,5.7H68.9c-3.1,0-5.7-2.5-5.7-5.7V58.4c0-3.1,2.6-5.7,5.7-5.7h51.5c3.1,0,5.7,2.5,5.7,5.7v79.1
			c-11.5-3-22.8-7.7-33.8-14l2.9-4.9c1-1.7,0.4-3.8-1.3-4.7c-0.8-0.5-1.7-0.6-2.6-0.4c-0.9,0.2-1.7,0.8-2.1,1.6l-15.4,26.4
			c-1,1.7-0.4,3.8,1.3,4.7c1.6,1,3.8,0.3,4.8-1.2l3.7-6.3c10,10.9,36,34.4,73.8,34.4l0.8,0c40.2-0.3,65.5-24.2,74.5-34.4l3.6,6.3
			c0.9,1.6,3.2,2.2,4.8,1.2c1.7-1,2.2-3.1,1.3-4.7l-15.4-26.4c-0.5-0.8-1.2-1.4-2.1-1.6c-0.9-0.3-1.8-0.1-2.6,0.4
			c-1.7,1-2.2,3.1-1.3,4.7l3.1,5.4c-4,2.4-16.4,9.2-34.1,13.7V58.4c0-3.1,2.6-5.7,5.7-5.7h51.5c3.1,0,5.7,2.5,5.7,5.7V194.4z
			 M286.4,171.1c0,3-2.5,5.5-5.5,5.5h-20.4V76.2h20.4c3,0,5.5,2.5,5.5,5.5V171.1z M307.8,159c0,2.4-1.9,4.3-4.3,4.3h-9.2V89.5h9.2
			c2.4,0,4.3,1.9,4.3,4.3V159z"/>
	</g>
	<g>
		<path class="st0" d="M95,106.8c11.7,0,21.2-9.5,21.2-21.2S106.7,64.3,95,64.3s-21.2,9.5-21.2,21.2S83.3,106.8,95,106.8z
			 M86.3,78.4c1.4,0,2.6,1.1,2.6,2.5c0,2.8-5.1,2.8-5.1,0C83.7,79.5,84.9,78.4,86.3,78.4z M108.3,85.6c0,7.3-6,13.3-13.3,13.3
			c-5.5,0-10.2-3.4-12.3-8.1c1.1,0.4,2.3,0.7,3.6,0.7c5.8,0,10.5-4.7,10.5-10.5c0-3.4-1.7-6.3-4.2-8.2c0.8-0.2,1.5-0.5,2.4-0.5
			C102.3,72.3,108.3,78.2,108.3,85.6z"/>
	</g>
	<g>
		<path class="st0" d="M219.7,64.3c-11.7,0-21.2,9.5-21.2,21.2s9.5,21.2,21.2,21.2c11.7,0,21.2-9.5,21.2-21.2S231.4,64.3,219.7,64.3
			z M211.1,78.4c1.4,0,2.6,1.1,2.6,2.5c0,2.8-5.1,2.8-5.1,0C208.5,79.5,209.7,78.4,211.1,78.4z M219.7,98.8
			c-5.5,0-10.2-3.4-12.2-8.1c1.1,0.4,2.3,0.7,3.6,0.7c5.8,0,10.5-4.7,10.5-10.5c0-3.4-1.7-6.3-4.2-8.2c0.8-0.2,1.5-0.5,2.4-0.5
			c7.3,0,13.3,6,13.3,13.3C233,92.9,227.1,98.8,219.7,98.8z"/>
	</g>
</g>
<g>
	<path class="st0" d="M80.1,274.2H63.5v17.1h-8.6v-41.9h27.3v7H63.5v10.8h16.6V274.2z"/>
	<path class="st0" d="M96.3,291.3h-8.6v-41.9h8.6V291.3z"/>
	<path class="st0" d="M135,256.4h-12.8v34.9h-8.6v-34.9h-12.7v-7H135V256.4z"/>
	<path class="st0" d="M152.8,291.3v-41.9h14.7c5.1,0,8.9,1,11.6,2.9c2.6,1.9,3.9,4.8,3.9,8.6c0,2.1-0.5,3.9-1.6,5.4
		c-1.1,1.6-2.5,2.7-4.4,3.4c2.1,0.5,3.8,1.6,5.1,3.2c1.2,1.6,1.9,3.6,1.9,6c0,4-1.3,7.1-3.9,9.1c-2.6,2.1-6.2,3.1-11,3.2H152.8z
		 M161.5,266.9h6.4c4.4-0.1,6.5-1.8,6.5-5.2c0-1.9-0.6-3.3-1.7-4.1c-1.1-0.8-2.8-1.3-5.2-1.3h-6V266.9z M161.5,273v11.3h7.4
		c2,0,3.6-0.5,4.8-1.5c1.1-1,1.7-2.3,1.7-4c0-3.8-2-5.8-6-5.8H161.5z"/>
	<path class="st0" d="M224.8,271.3c0,4.1-0.7,7.7-2.2,10.8c-1.5,3.1-3.5,5.5-6.3,7.2c-2.7,1.7-5.8,2.5-9.3,2.5
		c-3.5,0-6.6-0.8-9.3-2.5c-2.7-1.7-4.8-4-6.3-7.1c-1.5-3.1-2.3-6.7-2.3-10.7v-2.1c0-4.1,0.7-7.7,2.2-10.9c1.5-3.1,3.6-5.5,6.3-7.2
		c2.7-1.7,5.8-2.5,9.3-2.5c3.5,0,6.6,0.8,9.3,2.5c2.7,1.7,4.8,4.1,6.3,7.2c1.5,3.1,2.2,6.8,2.2,10.9V271.3z M216.1,269.4
		c0-4.4-0.8-7.7-2.4-10c-1.6-2.3-3.8-3.4-6.7-3.4c-2.9,0-5.1,1.1-6.7,3.4c-1.6,2.3-2.4,5.6-2.4,9.9v2c0,4.3,0.8,7.6,2.4,9.9
		c1.6,2.4,3.8,3.5,6.8,3.5c2.9,0,5.1-1.1,6.7-3.4c1.6-2.3,2.3-5.6,2.4-9.9V269.4z"/>
	<path class="st0" d="M260.1,256.4h-12.8v34.9h-8.6v-34.9H226v-7h34.1V256.4z"/>
</g>
</svg>
